<svg width="145" height="81" viewBox="0 0 145 81" fill="none" xmlns="http://www.w3.org/2000/svg">
<path d="M40.62 27.04C40.62 29.2333 40.06 31.1933 38.94 32.92C37.8667 34.6467 36.4667 35.8367 34.74 36.49C40.1533 36.77 44.0967 38.8933 46.57 42.86C47.83 44.8667 48.46 47.34 48.46 50.28C48.46 53.22 47.3167 55.9033 45.03 58.33C42.79 60.7567 39.92 62.4833 36.42 63.51C32.92 64.5367 29.2333 65.05 25.36 65.05C15.7 65.05 8.79333 62.4833 4.64 57.35C1.98 54.0833 0.65 49.6733 0.65 44.12C0.65 43.1867 0.696667 42.2533 0.79 41.32L1.49 41.25C1.81667 49.2767 4.68667 55.0167 10.1 58.47V20.04C10.0533 18.3133 9.28333 17.0533 7.79 16.26C7.13667 15.8867 6.41333 15.7 5.62 15.7H4.71V15H22.49C27.67 15 31.9867 16.05 35.44 18.15C38.8933 20.2033 40.62 23.1667 40.62 27.04ZM22.56 61.76C26.9 61.76 30.2833 60.6167 32.71 58.33C35.1833 56.0433 36.42 53.0333 36.42 49.3C36.42 46.9667 35.9767 45.0067 35.09 43.42C34.25 41.7867 33.13 40.5733 31.73 39.78C29.1633 38.24 26.2467 37.47 22.98 37.47V36.84C24.4733 36.84 25.7333 36.3033 26.76 35.23C28.5333 33.3633 29.42 30.82 29.42 27.6C29.42 24.38 28.6967 22 27.25 20.46C25.85 18.92 23.6333 18.1033 20.6 18.01V61.69C21.2533 61.7367 21.9067 61.76 22.56 61.76ZM108.837 73.73C113.69 73.73 117.61 72.7733 120.597 70.86L121.087 71.42C117.073 76.9733 112.08 80.0533 106.107 80.66C104.847 80.8 103.75 80.87 102.817 80.87C101.93 80.87 100.88 80.8233 99.6666 80.73C98.5 80.6833 96.8433 80.38 94.6966 79.82C92.55 79.26 90.66 78.6767 89.0266 78.07C87.3933 77.51 85.5033 76.74 83.3566 75.76C81.21 74.8267 79.4366 73.9867 78.0366 73.24C76.6366 72.54 74.9566 71.6767 72.9966 70.65C71.0833 69.67 69.4033 68.83 67.9566 68.13C66.51 67.43 65.11 66.8233 63.7566 66.31C59.93 64.77 56.01 64 51.9966 64V63.3H52.9066C54.12 63.3 55.1466 62.88 55.9866 62.04C56.8733 61.2 57.34 60.15 57.3866 58.89V20.11C57.34 18.85 56.8733 17.8 55.9866 16.96C55.1466 16.12 54.12 15.7 52.9066 15.7H51.9966V15H73.2766L73.2066 15.7H72.5066C70.7333 15.7 69.4033 16.4233 68.5166 17.87C68.0966 18.5233 67.8866 19.27 67.8866 20.11V60.71C67.8866 62.25 68.19 63.3233 68.7966 63.93C69.4033 64.49 70.08 64.8867 70.8266 65.12C88.3733 70.86 101.043 73.73 108.837 73.73ZM142.63 0.789996C143.236 0.789996 143.866 0.813329 144.52 0.859995V1.56C139.013 1.98 135.046 4.59333 132.62 9.4C131.033 12.5267 130.24 16.4933 130.24 21.3V46.29C130.146 52.17 128.256 56.7667 124.57 60.08C120.883 63.3467 115.61 64.98 108.75 64.98C101.936 64.98 96.4997 63.3 92.4397 59.94C88.3797 56.5333 86.373 52.0067 86.4197 46.36V19.13C86.4197 18.15 86.0464 17.3333 85.2997 16.68C84.5997 16.0267 83.7364 15.7 82.7097 15.7H81.5897V15H101.75V15.7H100.63C99.183 15.7 98.1097 16.26 97.4097 17.38C97.083 17.8933 96.9197 18.4533 96.9197 19.06V45.8C96.9197 50.7467 98.203 54.6667 100.77 57.56C103.336 60.4533 106.72 61.9 110.92 61.9C110.966 61.9 110.99 61.9 110.99 61.9C110.99 61.9 111.013 61.9 111.06 61.9C115.213 61.9 118.62 60.5467 121.28 57.84C123.94 55.1333 125.27 51.4233 125.27 46.71V21.3C125.27 15 126.926 10.0067 130.24 6.32C133.6 2.63333 137.73 0.789996 142.63 0.789996Z" fill="white"/>
</svg>
